<svg viewBox="0 0 12 12" width="60px" height="60px" xmlns="http://www.w3.org/2000/svg"><path fill-rule="evenodd" d="M 0,0 11,0 11,5 9,5 9,11 6,11 6,10 5,10 5,11 2,11 2,5 0,5z" fill="#9881F3"/><path fill-rule="evenodd" d="M 1,1 2,1 2,3 3,3 3,1 5,1 5,2 4,2 4,3 5,3 5,4 1,4z" fill="#ffffff"/><path fill-rule="evenodd" d="M 6,1 8,1 8,3 9,3 9,1 10,1 10,4 6,4 6,3 7,3 7,2 6,2z" fill="#ffffff"/><path fill-rule="evenodd" d="M 5,4 6,4 6,5 5,5z" fill="#ffffff"/><path fill-rule="evenodd" d="M 3,5 4,5 4,6 5,6 5,8 6,8 6,6 7,6 7,5 8,5 8,8 7,8 7,9 4,9 4,8 3,8z" fill="#ffffff"/><path fill-rule="evenodd" d="M 3,9 4,9 4,10 3,10z" fill="#ffffff"/><path fill-rule="evenodd" d="M 7,9 8,9 8,10 7,10z" fill="#ffffff"/></svg>